<svg xmlns="http://www.w3.org/2000/svg" width="1020" height="330" viewBox="0 0 1020 330">
    <defs>
        <clipPath id="5ku17edd5a">
            <path data-name="사각형 25372" transform="translate(620 314)" style="fill:#fff" d="M0 0h1020v330H0z"/>
        </clipPath>
    </defs>
    <g data-name="마스크 그룹 1138" transform="translate(-620 -314)" style="clip-path:url(#5ku17edd5a)">
        <path data-name="사각형 25338" d="M10 0h998.939a10 10 0 0 1 10 10v327H0V10A10 10 0 0 1 10 0z" transform="translate(620 314)" style="fill:#fff"/>
        <path data-name="패스 61256" d="M6910.579 5315.5v142.047l352.133-31.682V5315.5z" transform="translate(-5623.773 -4833)" style="fill:#f6f8fb"/>
        <path data-name="패스 61257" d="M6910.579 5467.963v10.416h352.055v-44.268z" transform="translate(-5623.695 -4833)" style="fill:#f6f8fb"/>
        <path data-name="사각형 25339" transform="translate(1287.305 388)" style="fill:#f6f8fb" d="M0 0h351.634v76H0z"/>
        <path data-name="사각형 25340" transform="translate(1287.305 314)" style="fill:#f6f8fb" d="M0 0h351.634v64H0z"/>
        <path data-name="사각형 25341" transform="translate(1152.445 314)" style="fill:#f6f8fb" d="M0 0h116.878v64H0z"/>
        <path data-name="사각형 25343" transform="translate(1013.59 314)" style="fill:#f6f8fb" d="M0 0h131.863v64H0z"/>
        <path data-name="사각형 25344" transform="translate(1014 388)" style="fill:#f6f8fb" d="M0 0h131.863v76H0z"/>
        <path data-name="사각형 25345" transform="translate(919.688 388)" style="fill:#f6f8fb" d="M0 0h75.921v76H0z"/>
        <path data-name="사각형 25346" transform="translate(919.688 314)" style="fill:#f6f8fb" d="M0 0h75.921v64H0z"/>
        <path data-name="사각형 25347" transform="translate(620 314)" style="fill:#f6f8fb" d="M0 0h290.697v64H0z"/>
        <path data-name="사각형 25348" transform="translate(620 388)" style="fill:#f6f8fb" d="M0 0h290.697v76H0z"/>
        <path data-name="사각형 25342" transform="translate(1152 388)" style="fill:#f6f8fb" d="M0 0h116.878v76H0z"/>
        <path data-name="패스 61258" d="M6637.158 5315.5v96.042l255.359 46.438V5315.5z" transform="translate(-5623.411 -4833)" style="fill:#f6f8fb"/>
        <path data-name="패스 61259" d="M6637.158 5421.09v57.722h255.793v-13.888z" transform="translate(-5623.411 -4833)" style="fill:#f6f8fb"/>
        <path data-name="패스 61260" d="M6546.055 5315.5h72.369v89.135z" transform="translate(-5623.315 -4833)" style="fill:#f6f8fb"/>
        <path data-name="패스 61261" d="m6294 5315.5 291.1.36 83.58 100.026v28.644H6294z" transform="translate(-5674 -4833)" style="fill:#f6f8fb"/>
        <g data-name="그룹 40979">
            <g data-name="타원 16073" transform="translate(962.643 344)" style="stroke-width:1.5px;stroke:#479927;fill:#fff">
                <ellipse cx="13.985" cy="14" rx="13.985" ry="14" style="stroke:none"/>
                <ellipse cx="13.985" cy="14" rx="13.235" ry="13.25" style="fill:none"/>
            </g>
            <path data-name="패스 61265" d="M0 0h18.352v18.371H0z" style="fill:none" transform="translate(967.452 348.814)"/>
            <path data-name="패스 61266" d="M13.47 16.013H5.823v.765a.765.765 0 0 1-.765.765H3.529a.765.765 0 0 1-.765-.765V9.889H2V6.827h.765v-2.3A1.53 1.53 0 0 1 4.294 3H15a1.53 1.53 0 0 1 1.529 1.531v2.3h.765v3.058h-.765v6.889a.765.765 0 0 1-.765.765h-1.529a.765.765 0 0 1-.765-.765zM4.294 4.531v5.358H15V4.531zm1.912 9.951a1.148 1.148 0 1 0-1.147-1.148 1.148 1.148 0 0 0 1.147 1.148zm6.882 0a1.148 1.148 0 1 0-1.147-1.148 1.148 1.148 0 0 0 1.147 1.148z" transform="translate(966.981 348.11)" style="fill:#479927"/>
        </g>
        <g data-name="그룹 40992">
            <g data-name="타원 16073" transform="translate(991.613 318)" style="stroke:#ee1010;stroke-width:1.5px;fill:#fff">
                <ellipse cx="13.985" cy="14" rx="13.985" ry="14" style="stroke:none"/>
                <ellipse cx="13.985" cy="14" rx="13.235" ry="13.25" style="fill:none"/>
            </g>
            <g data-name="bus-2-fill">
                <path data-name="패스 61265" d="M0 0h18.352v18.371H0z" style="fill:none" transform="translate(996.422 322.814)"/>
                <path data-name="패스 61266" d="M13.47 16.013H5.823v.765a.765.765 0 0 1-.765.765H3.529a.765.765 0 0 1-.765-.765V9.889H2V6.827h.765v-2.3A1.53 1.53 0 0 1 4.294 3H15a1.53 1.53 0 0 1 1.529 1.531v2.3h.765v3.058h-.765v6.889a.765.765 0 0 1-.765.765h-1.529a.765.765 0 0 1-.765-.765zM4.294 4.531v5.358H15V4.531zm1.912 9.951a1.148 1.148 0 1 0-1.147-1.148 1.148 1.148 0 0 0 1.147 1.148zm6.882 0a1.148 1.148 0 1 0-1.147-1.148 1.148 1.148 0 0 0 1.147 1.148z" transform="translate(995.951 322.11)" style="fill:#ee1010"/>
            </g>
        </g>
        <g data-name="그룹 40993">
            <g data-name="타원 16073" transform="translate(989.615 586)" style="stroke:#ee1010;stroke-width:1.5px;fill:#fff">
                <ellipse cx="13.985" cy="14" rx="13.985" ry="14" style="stroke:none"/>
                <ellipse cx="13.985" cy="14" rx="13.235" ry="13.25" style="fill:none"/>
            </g>
            <g data-name="bus-2-fill">
                <path data-name="패스 61265" d="M0 0h18.352v18.371H0z" style="fill:none" transform="translate(994.424 590.814)"/>
                <path data-name="패스 61266" d="M13.47 16.013H5.823v.765a.765.765 0 0 1-.765.765H3.529a.765.765 0 0 1-.765-.765V9.889H2V6.827h.765v-2.3A1.53 1.53 0 0 1 4.294 3H15a1.53 1.53 0 0 1 1.529 1.531v2.3h.765v3.058h-.765v6.889a.765.765 0 0 1-.765.765h-1.529a.765.765 0 0 1-.765-.765zM4.294 4.531v5.358H15V4.531zm1.912 9.951a1.148 1.148 0 1 0-1.147-1.148 1.148 1.148 0 0 0 1.147 1.148zm6.882 0a1.148 1.148 0 1 0-1.147-1.148 1.148 1.148 0 0 0 1.147 1.148z" transform="translate(993.953 590.11)" style="fill:#ee1010"/>
            </g>
        </g>
        <g data-name="그룹 40984">
            <g data-name="타원 16073" style="stroke-width:1.5px;stroke:#479927;fill:#fff" transform="translate(821.79 432)">
                <ellipse cx="13.985" cy="14" rx="13.985" ry="14" style="stroke:none"/>
                <ellipse cx="13.985" cy="14" rx="13.235" ry="13.25" style="fill:none"/>
            </g>
            <g data-name="bus-2-fill">
                <path data-name="패스 61265" d="M0 0h18.352v18.371H0z" style="fill:none" transform="translate(826.599 436.814)"/>
                <path data-name="패스 61266" d="M13.47 16.013H5.823v.765a.765.765 0 0 1-.765.765H3.529a.765.765 0 0 1-.765-.765V9.889H2V6.827h.765v-2.3A1.53 1.53 0 0 1 4.294 3H15a1.53 1.53 0 0 1 1.529 1.531v2.3h.765v3.058h-.765v6.889a.765.765 0 0 1-.765.765h-1.529a.765.765 0 0 1-.765-.765zM4.294 4.531v5.358H15V4.531zm1.912 9.951a1.148 1.148 0 1 0-1.147-1.148 1.148 1.148 0 0 0 1.147 1.148zm6.882 0a1.148 1.148 0 1 0-1.147-1.148 1.148 1.148 0 0 0 1.147 1.148z" transform="translate(826.128 436.11)" style="fill:#479927"/>
            </g>
        </g>
        <path data-name="사각형 25377" transform="translate(798 323)" style="fill:#edf1f8" d="M0 0h104v46H0z"/>
        <path data-name="사각형 25378" transform="translate(1028 401)" style="fill:#edf1f8" d="M0 0h104v50H0z"/>
        <path data-name="사각형 25379" transform="translate(1166 401)" style="fill:#edf1f8" d="M0 0h89v50H0z"/>
        <path data-name="사각형 25380" transform="translate(1301 403)" style="fill:#edf1f8" d="M0 0h104v50H0z"/>
        <g data-name="그룹 40985">
            <g data-name="타원 16073" transform="translate(883.725 488)" style="stroke-width:1.5px;stroke:#479927;fill:#fff">
                <ellipse cx="13.985" cy="14" rx="13.985" ry="14" style="stroke:none"/>
                <ellipse cx="13.985" cy="14" rx="13.235" ry="13.25" style="fill:none"/>
            </g>
            <g data-name="bus-2-fill">
                <path data-name="패스 61265" d="M0 0h18.352v18.371H0z" style="fill:none" transform="translate(888.534 492.814)"/>
                <path data-name="패스 61266" d="M13.47 16.013H5.823v.765a.765.765 0 0 1-.765.765H3.529a.765.765 0 0 1-.765-.765V9.889H2V6.827h.765v-2.3A1.53 1.53 0 0 1 4.294 3H15a1.53 1.53 0 0 1 1.529 1.531v2.3h.765v3.058h-.765v6.889a.765.765 0 0 1-.765.765h-1.529a.765.765 0 0 1-.765-.765zM4.294 4.531v5.358H15V4.531zm1.912 9.951a1.148 1.148 0 1 0-1.147-1.148 1.148 1.148 0 0 0 1.147 1.148zm6.882 0a1.148 1.148 0 1 0-1.147-1.148 1.148 1.148 0 0 0 1.147 1.148z" transform="translate(888.063 492.11)" style="fill:#479927"/>
            </g>
        </g>
        <text data-name="어진중학교(가재마을9단지) 정류장" transform="translate(760.871 421)" style="font-family:NotoSansCJKkr-Medium,Noto Sans CJK KR;font-weight:500;font-size:11px;letter-spacing:-.05em;fill:#136843"><tspan x="0" y="0">어진중학교(가재마을9단지) 정류장</tspan></text>
        <text transform="translate(996.551 362.5)" style="font-family:NotoSansCJKkr-Medium,Noto Sans CJK KR;font-weight:500;font-size:11px;letter-spacing:-.05em;fill:#136843"><tspan x="0" y="0">정부세종청사남측정류장</tspan></text>
        <text data-name="행정안전부 별관" transform="translate(850 351)" style="fill:#1c1c1c;font-family:NotoSansCJKkr-Medium,Noto Sans CJK KR;font-weight:500;font-size:11px;letter-spacing:-.05em"><tspan x="-34.732" y="0">행정안전부 별관</tspan></text>
        <text transform="translate(1080 431)" style="fill:#1c1c1c;font-family:NotoSansCJKkr-Medium,Noto Sans CJK KR;font-weight:500;font-size:11px;letter-spacing:-.05em"><tspan x="-33.77" y="0">산업통산자원부</tspan></text>
        <text transform="translate(1211 431)" style="fill:#1c1c1c;font-family:NotoSansCJKkr-Medium,Noto Sans CJK KR;font-weight:500;font-size:11px;letter-spacing:-.05em"><tspan x="-14.63" y="0">교육부</tspan></text>
        <text data-name="세종파이낸스센터 3차" transform="translate(1049.647 554)" style="fill:#1c1c1c;font-family:NotoSansCJKkr-Medium,Noto Sans CJK KR;font-weight:500;font-size:11px;letter-spacing:-.05em"><tspan x="-38.555" y="0">세종파이낸스센터</tspan><tspan x="-7.92" y="14">3차</tspan></text>
        <text data-name="세종파이낸스센터 2차 3~6층" transform="translate(1143.952 554)" style="font-family:NotoSansCJKkr-Bold,Noto Sans CJK KR;font-weight:700;fill:#1c1c1c;font-size:11px;letter-spacing:-.05em"><tspan x="-38.555" y="0">세종파이낸스센터</tspan><tspan x="-23.65" y="14" xml:space="preserve"> 2차 3~6층</tspan></text>
        <text data-name="세종파이낸스센터 1차" transform="translate(1233.376 554)" style="fill:#1c1c1c;font-family:NotoSansCJKkr-Medium,Noto Sans CJK KR;font-weight:500;font-size:11px;letter-spacing:-.05em"><tspan x="-38.555" y="0">세종파이낸스센터</tspan><tspan x="-7.92" y="14">1차</tspan></text>
        <text data-name="세종푸르지오시티 1차" transform="translate(1380.737 554)" style="fill:#1c1c1c;font-family:NotoSansCJKkr-Medium,Noto Sans CJK KR;font-weight:500;font-size:11px;letter-spacing:-.05em"><tspan x="-38.555" y="0">세종푸르지오시티</tspan><tspan x="-7.92" y="14">1차</tspan></text>
        <text transform="translate(1319.001 433)" style="fill:#1c1c1c;font-family:NotoSansCJKkr-Medium,Noto Sans CJK KR;font-weight:500;font-size:11px;letter-spacing:-.05em"><tspan x="0" y="0">문화체육관광부</tspan></text>
        <text transform="translate(1507 554)" style="fill:#1c1c1c;font-family:NotoSansCJKkr-Medium,Noto Sans CJK KR;font-weight:500;font-size:11px;letter-spacing:-.05em"><tspan x="-38.555" y="0">세종비즈니스센터</tspan></text>
        <text transform="translate(836.815 549)" style="fill:#444;font-family:NotoSansCJKkr-Medium,Noto Sans CJK KR;font-weight:500;font-size:11px;letter-spacing:-.05em"><tspan x="0" y="0">어진중학교</tspan></text>
        <text data-name="S-OIL 셀프주유소" transform="translate(867.702 605.09)" style="fill:#444;font-family:NotoSansCJKkr-Medium,Noto Sans CJK KR;font-weight:500;font-size:11px;letter-spacing:-.05em"><tspan x="0" y="0">S-OIL 셀프주유소</tspan></text>
        <g data-name="그룹 40999">
            <g data-name="사각형 25355" style="stroke:#ececec;fill:#fff">
                <path style="stroke:none" d="M0 0h1.998v15H0z" transform="translate(997.607 449)"/>
                <path style="fill:none" d="M.5.5h.998v14H.5z" transform="translate(997.607 449)"/>
            </g>
            <g data-name="사각형 25362" style="stroke:#ececec;fill:#fff">
                <path style="stroke:none" d="M0 0h1.998v15H0z" transform="translate(997.607 483)"/>
                <path style="fill:none" d="M.5.5h.998v14H.5z" transform="translate(997.607 483)"/>
            </g>
            <g data-name="사각형 25366" style="stroke:#ececec;fill:#fff">
                <path style="stroke:none" d="M0 0h2v14.984H0z" transform="rotate(90 281.786 748.287)"/>
                <path style="fill:none" d="M.5.5h1v13.984h-1z" transform="rotate(90 281.786 748.287)"/>
            </g>
            <g data-name="사각형 25370" style="stroke:#ececec;fill:#fff">
                <path style="stroke:none" d="M0 0h2v14.984H0z" transform="rotate(90 263.305 729.806)"/>
                <path style="fill:none" d="M.5.5h1v13.984h-1z" transform="rotate(90 263.305 729.806)"/>
            </g>
            <g data-name="사각형 25356" style="stroke:#ececec;fill:#fff">
                <path style="stroke:none" d="M0 0h1.998v15H0z" transform="translate(1001.603 449)"/>
                <path style="fill:none" d="M.5.5h.998v14H.5z" transform="translate(1001.603 449)"/>
            </g>
            <g data-name="사각형 25361" style="stroke:#ececec;fill:#fff">
                <path style="stroke:none" d="M0 0h1.998v15H0z" transform="translate(1001.603 483)"/>
                <path style="fill:none" d="M.5.5h.998v14H.5z" transform="translate(1001.603 483)"/>
            </g>
            <g data-name="사각형 25365" style="stroke:#ececec;fill:#fff">
                <path style="stroke:none" d="M0 0h2v14.984H0z" transform="rotate(90 279.786 750.287)"/>
                <path style="fill:none" d="M.5.5h1v13.984h-1z" transform="rotate(90 279.786 750.287)"/>
            </g>
            <g data-name="사각형 25369" style="stroke:#ececec;fill:#fff">
                <path style="stroke:none" d="M0 0h2v14.984H0z" transform="rotate(90 261.305 731.806)"/>
                <path style="fill:none" d="M.5.5h1v13.984h-1z" transform="rotate(90 261.305 731.806)"/>
            </g>
            <g data-name="사각형 25357" style="stroke:#ececec;fill:#fff">
                <path style="stroke:none" d="M0 0h1.998v15H0z" transform="translate(1005.598 449)"/>
                <path style="fill:none" d="M.5.5h.998v14H.5z" transform="translate(1005.598 449)"/>
            </g>
            <g data-name="사각형 25360" style="stroke:#ececec;fill:#fff">
                <path style="stroke:none" d="M0 0h1.998v15H0z" transform="translate(1005.598 483)"/>
                <path style="fill:none" d="M.5.5h.998v14H.5z" transform="translate(1005.598 483)"/>
            </g>
            <g data-name="사각형 25364" style="stroke:#ececec;fill:#fff">
                <path style="stroke:none" d="M0 0h2v14.984H0z" transform="rotate(90 277.786 752.287)"/>
                <path style="fill:none" d="M.5.5h1v13.984h-1z" transform="rotate(90 277.786 752.287)"/>
            </g>
            <g data-name="사각형 25368" style="stroke:#ececec;fill:#fff">
                <path style="stroke:none" d="M0 0h2v14.984H0z" transform="rotate(90 259.305 733.806)"/>
                <path style="fill:none" d="M.5.5h1v13.984h-1z" transform="rotate(90 259.305 733.806)"/>
            </g>
            <g data-name="사각형 25358" style="stroke:#ececec;fill:#fff">
                <path style="stroke:none" d="M0 0h1.998v15H0z" transform="translate(1009.594 449)"/>
                <path style="fill:none" d="M.5.5h.998v14H.5z" transform="translate(1009.594 449)"/>
            </g>
            <g data-name="사각형 25359" style="stroke:#ececec;fill:#fff">
                <path style="stroke:none" d="M0 0h1.998v15H0z" transform="translate(1009.594 483)"/>
                <path style="fill:none" d="M.5.5h.998v14H.5z" transform="translate(1009.594 483)"/>
            </g>
            <g data-name="사각형 25363" style="stroke:#ececec;fill:#fff">
                <path style="stroke:none" d="M0 0h2v14.984H0z" transform="rotate(90 275.786 754.287)"/>
                <path style="fill:none" d="M.5.5h1v13.984h-1z" transform="rotate(90 275.786 754.287)"/>
            </g>
            <g data-name="사각형 25367" style="stroke:#ececec;fill:#fff">
                <path style="stroke:none" d="M0 0h2v14.984H0z" transform="rotate(90 257.305 735.806)"/>
                <path style="fill:none" d="M.5.5h1v13.984h-1z" transform="rotate(90 257.305 735.806)"/>
            </g>
        </g>
        <text transform="translate(979.601 476.5)" style="fill:#444;font-family:NotoSansCJKkr-Medium,Noto Sans CJK KR;font-weight:500;font-size:11px;letter-spacing:-.05em"><tspan x="0" y="0">어진교차로</tspan></text>
        <g data-name="그룹 40988">
            <g data-name="그룹 40981">
                <g data-name="타원 16073" style="stroke:#444;stroke-width:1.5px;fill:#fff" transform="translate(846.764 506)">
                    <ellipse cx="13.985" cy="14" rx="13.985" ry="14" style="stroke:none"/>
                    <ellipse cx="13.985" cy="14" rx="13.235" ry="13.25" style="fill:none"/>
                </g>
            </g>
            <g data-name="building-4-fill (1)">
                <path data-name="패스 61267" d="M0 0h16.783v16.8H0z" style="fill:none" transform="translate(852.358 511.6)"/>
                <path data-name="패스 61268" d="M14.985 14.6h1.4V16H1v-1.4h1.4V2.7a.7.7 0 0 1 .7-.7h11.186a.7.7 0 0 1 .7.7zm-9.09-6.3v1.4h2.1V8.3zm0-2.8v1.4h2.1V5.5zm0 5.6v1.4h2.1v-1.4zm3.5 0v1.4h2.1v-1.4zm0-2.8v1.4h2.1V8.3zm0-2.8v1.4h2.1V5.5z" transform="translate(852.057 511)" style="fill:#444"/>
            </g>
        </g>
        <g data-name="그룹 41034">
            <g data-name="그룹 40981">
                <g data-name="타원 16073" style="stroke:#444;stroke-width:1.5px;fill:#fff" transform="translate(891.716 562.09)">
                    <ellipse cx="13.985" cy="14" rx="13.985" ry="14" style="stroke:none"/>
                    <ellipse cx="13.985" cy="14" rx="13.235" ry="13.25" style="fill:none"/>
                </g>
            </g>
            <g data-name="building-4-fill (1)">
                <path data-name="패스 61267" d="M0 0h16.783v16.8H0z" style="fill:none" transform="translate(897.31 567.69)"/>
                <path data-name="패스 61268" d="M14.985 14.6h1.4V16H1v-1.4h1.4V2.7a.7.7 0 0 1 .7-.7h11.186a.7.7 0 0 1 .7.7zm-9.09-6.3v1.4h2.1V8.3zm0-2.8v1.4h2.1V5.5zm0 5.6v1.4h2.1v-1.4zm3.5 0v1.4h2.1v-1.4zm0-2.8v1.4h2.1V8.3zm0-2.8v1.4h2.1V5.5z" transform="translate(897.009 567.09)" style="fill:#444"/>
            </g>
        </g>
        <g data-name="그룹 40989">
            <g data-name="그룹 40981">
                <g data-name="타원 16073" style="stroke:#444;stroke-width:1.5px;fill:#fff" transform="translate(1035.567 511)">
                    <ellipse cx="13.985" cy="14" rx="13.985" ry="14" style="stroke:none"/>
                    <ellipse cx="13.985" cy="14" rx="13.235" ry="13.25" style="fill:none"/>
                </g>
            </g>
            <g data-name="building-4-fill (1)">
                <path data-name="패스 61267" d="M0 0h16.783v16.8H0z" style="fill:none" transform="translate(1041.161 516.6)"/>
                <path data-name="패스 61268" d="M14.985 14.6h1.4V16H1v-1.4h1.4V2.7a.7.7 0 0 1 .7-.7h11.186a.7.7 0 0 1 .7.7zm-9.09-6.3v1.4h2.1V8.3zm0-2.8v1.4h2.1V5.5zm0 5.6v1.4h2.1v-1.4zm3.5 0v1.4h2.1v-1.4zm0-2.8v1.4h2.1V8.3zm0-2.8v1.4h2.1V5.5z" transform="translate(1040.86 516)" style="fill:#444"/>
            </g>
        </g>
        <g data-name="그룹 40990">
            <g data-name="그룹 40981">
                <g data-name="타원 16073" style="stroke:#444;stroke-width:1.5px;fill:#fff" transform="translate(1219.376 511)">
                    <ellipse cx="13.985" cy="14" rx="13.985" ry="14" style="stroke:none"/>
                    <ellipse cx="13.985" cy="14" rx="13.235" ry="13.25" style="fill:none"/>
                </g>
            </g>
            <g data-name="building-4-fill (1)">
                <path data-name="패스 61267" d="M0 0h16.783v16.8H0z" style="fill:none" transform="translate(1224.97 516.6)"/>
                <path data-name="패스 61268" d="M14.985 14.6h1.4V16H1v-1.4h1.4V2.7a.7.7 0 0 1 .7-.7h11.186a.7.7 0 0 1 .7.7zm-9.09-6.3v1.4h2.1V8.3zm0-2.8v1.4h2.1V5.5zm0 5.6v1.4h2.1v-1.4zm3.5 0v1.4h2.1v-1.4zm0-2.8v1.4h2.1V8.3zm0-2.8v1.4h2.1V5.5z" transform="translate(1224.669 516)" style="fill:#444"/>
            </g>
        </g>
        <g data-name="그룹 40991">
            <g data-name="그룹 40981">
                <g data-name="타원 16073" style="stroke:#444;stroke-width:1.5px;fill:#fff" transform="translate(1366.252 511)">
                    <ellipse cx="13.985" cy="14" rx="13.985" ry="14" style="stroke:none"/>
                    <ellipse cx="13.985" cy="14" rx="13.235" ry="13.25" style="fill:none"/>
                </g>
            </g>
            <g data-name="building-4-fill (1)">
                <path data-name="패스 61267" d="M0 0h16.783v16.8H0z" style="fill:none" transform="translate(1371.846 516.6)"/>
                <path data-name="패스 61268" d="M14.985 14.6h1.4V16H1v-1.4h1.4V2.7a.7.7 0 0 1 .7-.7h11.186a.7.7 0 0 1 .7.7zm-9.09-6.3v1.4h2.1V8.3zm0-2.8v1.4h2.1V5.5zm0 5.6v1.4h2.1v-1.4zm3.5 0v1.4h2.1v-1.4zm0-2.8v1.4h2.1V8.3zm0-2.8v1.4h2.1V5.5z" transform="translate(1371.545 516)" style="fill:#444"/>
            </g>
        </g>
        <g data-name="그룹 40998">
            <g data-name="그룹 40981">
                <g data-name="타원 16073" style="stroke:#444;stroke-width:1.5px;fill:#fff" transform="translate(1492.999 511)">
                    <ellipse cx="13.985" cy="14" rx="13.985" ry="14" style="stroke:none"/>
                    <ellipse cx="13.985" cy="14" rx="13.235" ry="13.25" style="fill:none"/>
                </g>
            </g>
            <g data-name="building-4-fill (1)">
                <path data-name="패스 61267" d="M0 0h16.783v16.8H0z" style="fill:none" transform="translate(1498.593 516.6)"/>
                <path data-name="패스 61268" d="M14.985 14.6h1.4V16H1v-1.4h1.4V2.7a.7.7 0 0 1 .7-.7h11.186a.7.7 0 0 1 .7.7zm-9.09-6.3v1.4h2.1V8.3zm0-2.8v1.4h2.1V5.5zm0 5.6v1.4h2.1v-1.4zm3.5 0v1.4h2.1v-1.4zm0-2.8v1.4h2.1V8.3zm0-2.8v1.4h2.1V5.5z" transform="translate(1498.292 516)" style="fill:#444"/>
            </g>
        </g>
        <path data-name="사각형 25349" transform="translate(620 621)" style="fill:#f6f8fb" d="M0 0h374.61v24H0z"/>
        <text data-name="다정동(대성고등학교) 정류장" transform="translate(817.794 637)" style="font-family:NotoSansCJKkr-Medium,Noto Sans CJK KR;font-weight:500;font-size:11px;letter-spacing:-.05em;fill:#136843"><tspan x="0" y="0">다정동(대성고등학교) 정류장</tspan></text>
        <g data-name="그룹 40986">
            <g data-name="타원 16073" style="stroke-width:1.5px;stroke:#479927;fill:#fff" transform="translate(954.647 611.531)">
                <ellipse cx="13.985" cy="14" rx="13.985" ry="14" style="stroke:none"/>
                <ellipse cx="13.985" cy="14" rx="13.235" ry="13.25" style="fill:none"/>
            </g>
            <g data-name="bus-2-fill">
                <path data-name="패스 61265" d="M0 0h18.352v18.371H0z" style="fill:none" transform="translate(959.456 616.345)"/>
                <path data-name="패스 61266" d="M13.47 16.013H5.823v.765a.765.765 0 0 1-.765.765H3.529a.765.765 0 0 1-.765-.765V9.889H2V6.827h.765v-2.3A1.53 1.53 0 0 1 4.294 3H15a1.53 1.53 0 0 1 1.529 1.531v2.3h.765v3.058h-.765v6.889a.765.765 0 0 1-.765.765h-1.529a.765.765 0 0 1-.765-.765zM4.294 4.531v5.358H15V4.531zm1.912 9.951a1.148 1.148 0 1 0-1.147-1.148 1.148 1.148 0 0 0 1.147 1.148zm6.882 0a1.148 1.148 0 1 0-1.147-1.148 1.148 1.148 0 0 0 1.147 1.148z" transform="translate(958.985 615.641)" style="fill:#479927"/>
            </g>
        </g>
        <g transform="translate(1067.534 453)">
            <g data-name="사각형 25373" style="stroke:#4a66d3;stroke-width:1.5px;fill:#fff">
                <rect width="152.841" height="59" rx="8" style="stroke:none"/>
                <rect x=".75" y=".75" width="151.341" height="57.5" rx="7.25" style="fill:none"/>
            </g>
            <text transform="translate(52.945 34)" style="fill:#4a66d3;font-family:NotoSansCJKkr-Bold,Noto Sans CJK KR;font-weight:700;font-size:11px;letter-spacing:-.05em"><tspan x="0" y="0">과학기술정보통신부</tspan></text>
            <g data-name="그룹 41001">
                <g data-name="그룹 40981" transform="translate(8.991 11)">
                    <ellipse data-name="타원 16073" cx="18.481" cy="18.5" rx="18.481" ry="18.5" style="fill:#fff"/>
                </g>
                <g data-name="그룹 41002">
                    <g data-name="그룹 40388">
                        <g data-name="그룹 40387">
                            <g data-name="그룹 40386">
                                <g data-name="그룹 40385">
                                    <g data-name="그룹 40384">
                                        <g data-name="그룹 40383">
                                            <g data-name="그룹 40381">
                                                <path data-name="패스 60975" d="M69.367 25.539a5.9 5.9 0 0 0-8.4 1.762 5.909 5.909 0 0 1-10.682-1.624l-.017-.062c-.006-.025-.014-.05-.019-.076a7.571 7.571 0 0 1-.3-2.347C49.948 17.9 55.38 12 63.206 12a14.925 14.925 0 0 1 13.778 9.49c-.021-.059-.039-.119-.06-.18a16.875 16.875 0 0 0-32.836 5.474c0 8.329 6.008 15.459 14.341 15.459a13.553 13.553 0 0 0 13.161-8.862 6.5 6.5 0 0 0-2.223-7.842z" transform="translate(-33.223 3.461)" style="fill:#002b51"/>
                                            </g>
                                            <g data-name="그룹 40382">
                                                <path data-name="패스 60976" d="M88.98 26.057a14.877 14.877 0 0 0-13.88-9.819c-7.826 0-13.258 5.9-13.258 11.191a7.571 7.571 0 0 0 .3 2.347 4.962 4.962 0 0 1-.156-1.2c0-5.515 5.523-9.336 11.2-9.336A13.912 13.912 0 0 1 87.1 33.148a15.336 15.336 0 0 1-8.5 13.741 16.877 16.877 0 0 0 11.127-15.87 16.661 16.661 0 0 0-.747-4.962z" transform="translate(-45.114 -.775)" style="fill:#da0021"/>
                                            </g>
                                        </g>
                                    </g>
                                </g>
                            </g>
                        </g>
                    </g>
                </g>
            </g>
            <ellipse data-name="타원 16075" cx="8.991" cy="9" rx="8.991" ry="9" transform="translate(66.93 65)" style="opacity:.17;fill:#4a66d3"/>
            <path data-name="선 3726" transform="translate(75.921 58)" style="stroke-dasharray:2;stroke:#4a66d3;fill:none" d="M0 0v16"/>
            <ellipse data-name="타원 16076" cx="3.996" cy="4" rx="3.996" ry="4" transform="translate(71.925 70)" style="fill:#4a66d3"/>
        </g>
    </g>
</svg>
