<svg xmlns="http://www.w3.org/2000/svg" width="275" height="63" viewBox="0 0 275 63">
    <path data-name="사각형 24943" style="fill:none" d="M0 0h275v63H0z"/>
    <g data-name="그룹 40421">
        <g data-name="그룹 40419">
            <g data-name="그룹 40418">
                <g data-name="그룹 40417">
                    <g data-name="그룹 40416">
                        <g data-name="그룹 40415">
                            <g data-name="그룹 40413">
                                <path data-name="패스 61000" d="M84.509 32.589a9.438 9.438 0 0 0-13.427 2.817A9.449 9.449 0 0 1 54 32.808l-.026-.1c-.01-.036-.022-.078-.032-.121a12.117 12.117 0 0 1-.483-3.753c0-8.468 8.686-17.9 21.2-17.9C87.47 10.941 94.8 20.7 96.69 26.117c-.032-.1-.061-.191-.1-.288a26.984 26.984 0 0 0-52.507 8.754c0 13.318 9.607 24.72 22.931 24.72 10.629 0 17.771-5.959 21.047-14.17a10.4 10.4 0 0 0-3.552-12.544z" transform="translate(-41.449 -2.356)" style="fill:#919191"/>
                            </g>
                            <g data-name="그룹 40414">
                                <path data-name="패스 61001" d="M105.239 29.628c-1.576-5.287-8.962-15.7-22.2-15.7-12.513 0-21.2 9.427-21.2 17.9a12.117 12.117 0 0 0 .483 3.753 7.9 7.9 0 0 1-.249-1.925c0-8.818 8.83-14.928 17.906-14.928a22.245 22.245 0 0 1 22.246 22.244 24.521 24.521 0 0 1-13.6 21.972v.006a26.989 26.989 0 0 0 17.793-25.376 26.673 26.673 0 0 0-1.179-7.946z" transform="translate(-49.829 -5.342)" style="fill:#919191"/>
                            </g>
                        </g>
                    </g>
                </g>
            </g>
        </g>
        <g data-name="그룹 40420">
            <path data-name="패스 61002" d="M192.406 55.573V58h-14.272v-2.427h4.486V48.4h2.712v7.174zm-4.067-2.546V41.936h-9.392v-2.4h12.079v13.491zm8.479 7.149h-2.736V38.337h2.736v9.206h2.81v2.571h-2.81z" transform="translate(-104.735 -16.866)" style="fill:#919191"/>
            <path data-name="패스 61003" d="M233.039 39.314v2.35h-12.818v-2.35h5.029V37.5h2.884v1.812zm-11.906 13.025h17.3v7.247h-2.711v-4.848h-14.589zm10.649-5.607a4.179 4.179 0 0 1-.406 1.812 5.025 5.025 0 0 1-1.073 1.493 6.072 6.072 0 0 1-1.627.992 5.085 5.085 0 0 1-1.972.38 5.174 5.174 0 0 1-1.984-.38 5.636 5.636 0 0 1-1.615-.992 4.823 4.823 0 0 1-1.1-1.493 4.172 4.172 0 0 1-.407-1.812 4.093 4.093 0 0 1 .407-1.8 4.882 4.882 0 0 1 1.1-1.482 5.633 5.633 0 0 1 1.615-.991 5.164 5.164 0 0 1 1.984-.38 5.075 5.075 0 0 1 1.972.38 6.069 6.069 0 0 1 1.627.991 5.09 5.09 0 0 1 1.073 1.482 4.1 4.1 0 0 1 .406 1.8zm-2.613-.025a2.243 2.243 0 0 0-.727-1.677 2.422 2.422 0 0 0-1.738-.7 2.378 2.378 0 0 0-1.725.7 2.259 2.259 0 0 0-.715 1.677 2.3 2.3 0 0 0 .715 1.69 2.357 2.357 0 0 0 1.725.71 2.4 2.4 0 0 0 1.738-.71 2.283 2.283 0 0 0 .727-1.689zm9.268 4.407h-2.711V37.943h2.711v5.117h3.155v2.668h-3.155z" transform="translate(-124.605 -16.472)" style="fill:#919191"/>
            <path data-name="패스 61004" d="M274.082 57.312h-2.736v-15.18h-8.43v-2.448h11.166zm5.5-18.975h2.736v21.839h-2.738z" transform="translate(-144.762 -16.866)" style="fill:#919191"/>
            <path data-name="패스 61005" d="M314.056 50.354v-1.69h-8.726v-2.228h20.214v2.228h-8.751v1.69h7.124v5.533h-14.273v1.322h14.568v2.228h-17.255v-5.68H321.2v-1.248h-14.243v-2.155zm1.381-9.818-7.691 5.411-1.627-1.885 9.318-6.512 9.318 6.512-1.627 1.885z" transform="translate(-164.787 -16.494)" style="fill:#919191"/>
            <path data-name="패스 61006" d="M347.348 41.3v-2.326h12.621V41.3H354.6l5.6 6.782-1.9 1.567-4.536-5.607-4.464 5.974-1.972-1.567 5.6-7.149zm17.477 14.225a4.792 4.792 0 0 1-.456 2.068 5.651 5.651 0 0 1-3.032 2.865 5.988 5.988 0 0 1-4.449 0 5.655 5.655 0 0 1-1.824-1.163 5.72 5.72 0 0 1-1.22-1.7 4.919 4.919 0 0 1 0-4.137 5.72 5.72 0 0 1 1.22-1.7 5.654 5.654 0 0 1 1.824-1.163 5.988 5.988 0 0 1 4.449 0 5.651 5.651 0 0 1 3.032 2.865 4.794 4.794 0 0 1 .456 2.065zm-2.686-.024a2.848 2.848 0 0 0-.9-2.106 2.974 2.974 0 0 0-2.157-.882 2.9 2.9 0 0 0-2.12.882 2.956 2.956 0 0 0 0 4.224 2.925 2.925 0 0 0 2.12.869 3 3 0 0 0 2.157-.869 2.833 2.833 0 0 0 .9-2.119zm1.824-5.583v-4.725h-4.092v-2.351h4.092v-4.5h2.737v11.576z" transform="translate(-184.613 -16.866)" style="fill:#919191"/>
            <path data-name="패스 61007" d="M405.566 43.454V40.1h2.712v12.486h-7.124v4.407h8.746v2.4h-20.209v-2.4h8.726v-4.407h-7.1V40.1H394v3.354zm0 6.757V45.8H394v4.407z" transform="translate(-204.615 -17.699)" style="fill:#919191"/>
            <path data-name="패스 61008" d="M433.5 47.618v-8.863h16.935v2.2H436.21v1.15h14.124v2.131H436.21v1.224h14.3v2.155h-7.173v1.4h8.751v2.228h-20.216v-2.229h8.728v-1.4zm13.854 8.912a4.305 4.305 0 0 1-.407 1.849 4.889 4.889 0 0 1-1.122 1.53 6.143 6.143 0 0 1-1.738 1.053 5.826 5.826 0 0 1-4.2 0 5.759 5.759 0 0 1-1.726-1.053 4.736 4.736 0 0 1-1.146-1.53 4.43 4.43 0 0 1 0-3.709 5.059 5.059 0 0 1 1.146-1.542 5.563 5.563 0 0 1 1.726-1.04 6.008 6.008 0 0 1 4.2 0 5.922 5.922 0 0 1 1.738 1.04 5.235 5.235 0 0 1 1.122 1.542 4.283 4.283 0 0 1 .406 1.86zm-2.712-.024a2.457 2.457 0 0 0-.789-1.836 2.611 2.611 0 0 0-1.873-.759 2.653 2.653 0 0 0-1.886.759 2.437 2.437 0 0 0-.8 1.836 2.475 2.475 0 0 0 .8 1.849 2.632 2.632 0 0 0 1.886.771 2.59 2.59 0 0 0 1.873-.771 2.5 2.5 0 0 0 .788-1.85z" transform="translate(-224.53 -17.064)" style="fill:#919191"/>
            <path data-name="패스 61009" d="m480.35 38.1 6.926 11.14-2.219 1.371-4.708-7.835-4.684 8.006-2.265-1.366zm-5.15 21.526v-7.3h2.712v4.9h15.307v2.4zm15.086-7.419v-13.98h2.737v13.98z" transform="translate(-244.135 -16.757)" style="fill:#919191"/>
            <path data-name="패스 61010" d="M516.233 52.474h20.213v2.4H527.7v5.631h-2.737v-5.631h-8.726zm4.314-10.674h11.561v-2.767h2.712v10.5h-16.96v-10.5h2.687zm11.561 2.351h-11.561v3.012h11.561z" transform="translate(-264.359 -17.195)" style="fill:#919191"/>
        </g>
    </g>
</svg>
