<svg xmlns="http://www.w3.org/2000/svg" width="36" height="36" viewBox="0 0 36 36">
    <g transform="translate(2867.623 -10012.377)">
        <circle data-name="타원 7" cx="18" cy="18" r="18" transform="translate(-2867.623 10012.377)" style="fill:#505050"/>
        <path data-name="패스 53" d="M0 0h22.941v22.941H0z" style="fill:none" transform="translate(-2860.733 10019.267)"/>
        <path data-name="패스 54" d="M21.263 5.569a8.014 8.014 0 0 1-2.3.629 4.011 4.011 0 0 0 1.759-2.212 7.989 7.989 0 0 1-2.539.97A4 4 0 0 0 11.375 8.6a11.35 11.35 0 0 1-8.24-4.177 4 4 0 0 0 1.237 5.34 3.984 3.984 0 0 1-1.81-.5v.05a4 4 0 0 0 3.206 3.92 4.024 4.024 0 0 1-1.806.069A4 4 0 0 0 7.7 16.078a8.024 8.024 0 0 1-5.918 1.656 11.308 11.308 0 0 0 6.127 1.8A11.3 11.3 0 0 0 19.281 8.156c0-.172 0-.346-.012-.516a8.121 8.121 0 0 0 1.995-2.07z" transform="translate(-2860.811 10019.104)" style="fill:#b7b7b7"/>
    </g>
</svg>
