<svg xmlns="http://www.w3.org/2000/svg" width="36" height="36" viewBox="0 0 36 36">
    <g transform="translate(2916 -10012)">
        <circle data-name="타원 6" cx="18" cy="18" r="18" transform="translate(-2916 10012)" style="fill:#505050"/>
        <path data-name="패스 167" d="M0 0h26v26H0z" style="fill:none" transform="translate(-2911 10017)"/>
        <path data-name="패스 168" d="M12.533 9.373a3.16 3.16 0 1 0 3.16 3.16 3.16 3.16 0 0 0-3.16-3.16zm0-2.107a5.267 5.267 0 1 1-5.267 5.267 5.267 5.267 0 0 1 5.267-5.266zM19.38 7a1.317 1.317 0 1 1-1.317-1.317A1.317 1.317 0 0 1 19.38 7zm-6.847-2.9c-2.606 0-3.031.007-4.244.061a5.722 5.722 0 0 0-1.894.35 3.04 3.04 0 0 0-1.138.74A3.044 3.044 0 0 0 4.516 6.4a5.714 5.714 0 0 0-.349 1.894c-.055 1.163-.061 1.569-.061 4.244 0 2.606.007 3.031.061 4.244a5.745 5.745 0 0 0 .349 1.893 3.275 3.275 0 0 0 1.877 1.878 5.734 5.734 0 0 0 1.9.351c1.163.055 1.569.061 4.244.061 2.606 0 3.031-.007 4.244-.061a5.756 5.756 0 0 0 1.893-.349 3.077 3.077 0 0 0 1.138-.739 3.045 3.045 0 0 0 .742-1.138 5.758 5.758 0 0 0 .35-1.9c.055-1.163.061-1.569.061-4.244 0-2.606-.007-3.031-.061-4.244a5.733 5.733 0 0 0-.35-1.894 3.066 3.066 0 0 0-.74-1.138 3.038 3.038 0 0 0-1.138-.742 5.72 5.72 0 0 0-1.894-.349c-1.168-.054-1.575-.06-4.249-.06zm0-2.107c2.862 0 3.219.011 4.342.063a7.76 7.76 0 0 1 2.557.49A5.135 5.135 0 0 1 21.3 3.767a5.17 5.17 0 0 1 1.214 1.866A7.781 7.781 0 0 1 23 8.191c.05 1.123.063 1.48.063 4.342s-.011 3.219-.063 4.342a7.787 7.787 0 0 1-.49 2.557 5.378 5.378 0 0 1-3.081 3.081 7.781 7.781 0 0 1-2.557.49c-1.123.05-1.48.063-4.342.063s-3.216-.01-4.339-.066a7.787 7.787 0 0 1-2.557-.49 5.378 5.378 0 0 1-3.081-3.081 7.754 7.754 0 0 1-.49-2.557C2.014 15.752 2 15.395 2 12.533s.011-3.219.063-4.342a7.754 7.754 0 0 1 .49-2.557 5.14 5.14 0 0 1 1.214-1.867 5.158 5.158 0 0 1 1.867-1.214 7.754 7.754 0 0 1 2.557-.49C9.314 2.014 9.671 2 12.533 2z" transform="translate(-2910.533 10017.467)" style="fill:#b7b7b7"/>
    </g>
</svg>
