<svg xmlns="http://www.w3.org/2000/svg" width="36" height="36" viewBox="0 0 36 36">
    <g data-name="네이버 블로그" transform="translate(2916 -10012)">
        <circle data-name="타원 6" cx="18" cy="18" r="18" transform="translate(-2916 10012)" style="fill:#505050"/>
        <path data-name="패스 18932" d="M0 0h24.718v24.718H0z" style="fill:none" transform="translate(-2910.359 10017.641)"/>
        <path data-name="패스 18933" d="M22.128 6.573a31.988 31.988 0 0 1 .471 5.667 31.987 31.987 0 0 1-.471 5.667 2.9 2.9 0 0 1-2 2.083c-1.76.49-7.833.49-7.833.49s-6.069 0-7.833-.49a2.9 2.9 0 0 1-2-2.083A31.988 31.988 0 0 1 2 12.239a31.988 31.988 0 0 1 .471-5.667 2.9 2.9 0 0 1 2-2.083C6.23 4 12.3 4 12.3 4s6.072 0 7.833.49a2.9 2.9 0 0 1 1.995 2.083zm-11.889 9.271 6.18-3.6-6.18-3.6z" transform="translate(-2910.299 10017.761)" style="fill:#b7b7b7"/>
    </g>
</svg>
